<svg xmlns="http://www.w3.org/2000/svg" width="1024" height="1024"><path d="M41.317 164.747c.242.414 88.757 153.753 196.7 340.753 107.943 187 198.159 343.256 200.479 347.236l4.219 7.236 200.643-347.528C753.711 321.304 844 164.71 844 164.458c0-.252-69.464-.458-154.365-.458H535.269l-45.72 79.25c-25.145 43.587-46.032 79.579-46.414 79.98-.383.402-21.407-35.148-46.721-79l-46.026-79.73-154.755-.253c-85.115-.139-154.557.086-154.316.5m522.87 530.491c.788 1.244 22.518 38.825 48.289 83.513s46.944 81.138 47.052 81c.823-1.053 94.69-164.155 95.125-165.289.486-1.266-4.371-1.461-36.296-1.454l-36.857.008-10.901 19.008c-5.996 10.454-11.171 18.751-11.5 18.438-.33-.313-5.351-8.757-11.16-18.765l-10.56-18.197-37.313-.262-37.312-.263 1.433 2.263m178.838 80.224c-26.111 45.313-47.636 82.871-47.833 83.463-.252.754 10.65 1.075 36.504 1.075h36.863l10.221-17.75c5.622-9.763 10.578-18.301 11.014-18.974.509-.787 4.713 5.565 11.749 17.751l10.957 18.975 37.368-.251 37.369-.251 47.881-82.923c26.335-45.608 47.882-83.07 47.882-83.25 0-.18-16.618-.327-36.929-.327h-36.929l-10.821 18.962c-5.951 10.429-11.046 18.972-11.321 18.985-.275.013-5.386-8.519-11.358-18.961L864.784 693l-37.142.038-37.142.038-47.475 82.386m-187.204 35.885c-6.16 1.722-11.138 5.636-14.549 11.437-2.372 4.035-2.769 5.799-2.752 12.216.021 8.084 1.496 12.115 6.344 17.342 4.744 5.114 9.815 7.109 18.136 7.135 6.448.02 8.172-.372 12.292-2.794 5.919-3.479 10.14-9.146 11.721-15.737 4.394-18.318-12.888-34.717-31.192-29.599" fill="undefined" fill-rule="evenodd"/></svg>